<svg xmlns="http://www.w3.org/2000/svg" viewBox="0 0 1049.34 746.25"><defs><style>.cls-1{fill:#8faff7;}.cls-2{fill:#303f9f;}.cls-3{fill:#00207a;}.cls-4{opacity:0.49;}.cls-5{fill:#3ba1e0;}.cls-6{fill:#43b1ff;}.cls-7,.cls-9{fill:none;stroke-miterlimit:10;}.cls-7{stroke:#433cff;}.cls-8{fill:#a8eaef;}.cls-9{stroke:#3398ef;}.cls-10{fill:#4e7e7f;}.cls-11{fill:#58bec6;}.cls-12{fill:#fff;}.cls-13{fill:#7c49ff;}.cls-14{fill:#f0fcfb;}.cls-15{fill:#95b7b4;}.cls-16{fill:#6a6741;}.cls-17{fill:#ffb565;}.cls-18{fill:#010036;}.cls-19{fill:#b5b5b5;}.cls-20{fill:#d3d3d3;}</style></defs><title>artbanner</title><g id="Layer_11" data-name="Layer 11"><path class="cls-1" d="M1084.8,864.81a286.06,286.06,0,0,1-43,13.58c-15.92,3.71-198.81,43.41-291.6-81.93A241,241,0,0,1,717,733c-11.11-31.5-17-66.12-18.11-102-1.19-36.66,2.52-74.61,10.46-111.81-.13,38,5,76.11,16.55,111.83.3.94.6,1.87.91,2.8a299.13,299.13,0,0,0,11,28.38,274.21,274.21,0,0,0,17.33,32.6,257.66,257.66,0,0,0,36.3,45.86c1.36,1.37,2.73,2.71,4.12,4l0,0c.86.84,1.74,1.66,2.61,2.48,56.38,52.71,129.91,75.36,195.84,95.66,6.16,1.89,14,4.22,23.41,6.77q5.49,1.49,11.64,3.05h0c9.74,2.49,20.71,5.08,32.75,7.62,4.32.91,8.77,1.82,13.38,2.7C1078.39,863.62,1081.56,864.22,1084.8,864.81Z" transform="translate(-698.66 -141)"/><path class="cls-1" d="M1610.09,491.58c-22.1,56.69-85.15,62.93-152.23,85.87-210,71.84-227.7,228.23-373.06,287.36-3.24-.59-6.41-1.19-9.53-1.79-4.61-.88-9.06-1.79-13.38-2.7-12-2.54-23-5.13-32.75-7.62h0q-6.15-1.56-11.64-3.05c-9.39-2.55-17.25-4.88-23.41-6.77-65.93-20.3-139.46-43-195.84-95.66-.87-.82-1.75-1.64-2.61-2.48l0,0c-1.39-1.33-2.76-2.67-4.12-4a257.66,257.66,0,0,1-36.3-45.86,274.21,274.21,0,0,1-17.33-32.6,299.13,299.13,0,0,1-11-28.38c-.31-.93-.61-1.86-.91-2.8-11.5-35.72-16.68-73.8-16.55-111.83v0c15-70.25,45.18-137.83,86.17-189.09,5.56-7,58.28-71,136.51-103.87,33-13.86,70.61-22.16,111.11-18.23,74.84,7.26,112.57,51.69,156.06,90.24,32.43,28.77,68.08,54.27,124.71,58.65,116.18,9,178.68-81.87,237.48-38.6C1607.82,352.43,1631.4,436.92,1610.09,491.58Z" transform="translate(-698.66 -141)"/></g><g id="Layer_9" data-name="Layer 9"><path class="cls-2" d="M1696.82,638.52h0q-5.34,6.78-11,13.55h0c-8.36,9.94-17.25,19.83-26.45,29.56-19.77,20.94-41,41.1-61.39,59.33q-5.55,4.95-11,9.7l-3,2.62q-4,3.45-8,6.76-5.54,4.61-11.14,9-5.27,4.13-10.59,8-8.22,6.08-16.54,11.68a491.49,491.49,0,0,1-91.32,48.48,529.22,529.22,0,0,1-66.72,21.84c-110.46,28.31-218.66,19.6-294.77,5.76-3.24-.59-6.41-1.19-9.53-1.79-4.61-.88-9.06-1.79-13.38-2.7-12-2.54-23-5.13-32.75-7.62h0q-6.15-1.56-11.64-3.05c-9.39-2.55-17.25-4.88-23.41-6.77-65.93-20.3-139.46-43-195.84-95.66-.87-.82-1.75-1.64-2.61-2.48l0,0c-1.39-1.33-2.76-2.67-4.12-4a257.66,257.66,0,0,1-36.3-45.86,274.21,274.21,0,0,1-17.33-32.6,299.13,299.13,0,0,1-11-28.38c-.31-.93-.61-1.86-.91-2.8-11.5-35.72-16.68-73.8-16.55-111.83v0c.45-130.83,63.75-261,149.1-292.23,26.23-9.59,49.43-8,73.58-.73,50.46,15.11,105.08,54.75,200.18,67.93,2.49.34,5,.67,7.45,1a439.63,439.63,0,0,0,59.54,3.11,465.53,465.53,0,0,0,58.81-4.64h0c106.19-15.06,201.54-64.24,277.35-115.16,72.9-43.57,101.77-41.62,114.48-31.12,43.83,36.25-76.9,197.33-12.45,287.43,33.84,47.32,87.62,31.61,105.77,72.18C1758.72,541.7,1735,590.06,1696.82,638.52Z" transform="translate(-698.66 -141)"/><path class="cls-1" d="M1714,463c-5,.14-37.13.49-61.1-25.1-28.51-30.45-20-70.36-19.24-73.65A159.89,159.89,0,0,0,1714,463Z" transform="translate(-698.66 -141)"/><path class="cls-3" d="M1340.39,244.09c4.19,3.34,25.1-9.5,66.92-35.18,16.06-9.86,21.7-13.72,21.45-18.87-.58-11.48-30.26-25.29-53.19-18C1342.19,182.59,1329.82,235.65,1340.39,244.09Z" transform="translate(-698.66 -141)"/></g><g id="Layer_10" data-name="Layer 10"><g class="cls-4"><path class="cls-5" d="M1568.82,499.72c-.48,6.35-1.32,13.63-2.37,21.9-1.53,12-3.52,26.21-5.51,42.73q-1.64,13.53-3.19,29.2c-.16,1.67-.32,3.33-.47,5s-.28,3-.41,4.56q-1.08,12.12-1.87,23.84h0q-1.63,23.82-2.23,45.84-.48,16.13-.52,31.15,0,4.72,0,9.34c.09,23.78.87,45.21,1.9,63.77q-8.22,6.08-16.54,11.68l-54.83-4.15c2.47-15.92,5.8-40.6,7.86-71.3.06-1,.13-2,.19-3.06.14-2.13.26-4.22.38-6.28.62-11.26,1-21.59,1.1-31.15.13-8.29.1-16,0-23.2-.12-6.6-.32-12.78-.55-18.63h0c-.7-17.05-1.74-31.18-2.09-44.13h0c-.4-15.31.17-29,3.41-43.87.19-.87.38-1.74.59-2.61a149.37,149.37,0,0,1,4.95-16.61q1.11-3,2.32-5.92A120,120,0,0,1,1523.4,482a75.24,75.24,0,0,1,12.49-10.87c5.09-3.44,10-5.6,14.48-6.33,4.71-.78,8.85,0,12,2.56a14,14,0,0,1,3.41,4,25.18,25.18,0,0,1,2.86,8.92C1569.44,485.5,1569.4,491.91,1568.82,499.72Z" transform="translate(-698.66 -141)"/><path class="cls-6" d="M1540,520c-6.12-32.27-9-78.86,15.68-114.29,5.89-8.46,17.39-25,32.37-22.49,14,2.35,24.81,20.32,28.34,30.36C1633.43,462.11,1547.76,515.33,1540,520Z" transform="translate(-698.66 -141)"/><line class="cls-7" x1="894.86" y1="249.48" x2="846.52" y2="368.95"/><polyline class="cls-7" points="867.55 262.74 877.94 291.3 907.87 288.3"/><polyline class="cls-7" points="858.01 286.48 868.39 315.04 898.32 312.04"/><polyline class="cls-7" points="847.41 312 857.79 340.56 887.73 337.56"/><path class="cls-8" d="M1523.81,563.52c-28.6-16.17-66-44.1-77.14-85.78-2.66-10-7.86-29.42,3.73-39.24,10.85-9.19,31.55-5.82,41.49-2C1539.92,454.77,1525.22,554.56,1523.81,563.52Z" transform="translate(-698.66 -141)"/><line class="cls-9" x1="760.79" y1="297.99" x2="820.79" y2="412.05"/><polyline class="cls-9" points="753.28 327.4 781.79 337.91 798.83 313.12"/><polyline class="cls-9" points="765.24 350.02 793.75 360.54 810.79 335.74"/><polyline class="cls-9" points="777.88 374.59 806.39 385.11 823.43 360.31"/><path class="cls-10" d="M1586.9,703.94v46.73l-3,2.62q-14.66,12.66-29.74,23.76-8.22,6.08-16.54,11.68a491.49,491.49,0,0,1-91.32,48.48V703.94Z" transform="translate(-698.66 -141)"/><rect class="cls-11" x="747.63" y="531.79" width="140.61" height="40.49"/><path class="cls-6" d="M1516.51,654.48c-6.84-32.13-22.25-76.19-58.66-99.33-8.71-5.53-25.71-16.34-38.55-8.23-12,7.59-15,28.34-14.39,39C1407.94,637.19,1507.53,653.14,1516.51,654.48Z" transform="translate(-698.66 -141)"/><line class="cls-7" x1="718.38" y1="414.7" x2="809.17" y2="506.18"/><polyline class="cls-7" points="748.69 416.37 750.16 446.72 721.4 455.53"/><polyline class="cls-7" points="766.68 434.57 768.15 464.92 739.39 473.73"/><polyline class="cls-7" points="786.32 454 787.79 484.36 759.03 493.16"/><path class="cls-8" d="M1530.44,638.5c30.43-12.37,71.09-35.29,87.47-75.2,3.92-9.54,11.57-28.18,1.33-39.4-9.59-10.5-30.55-9.8-40.89-7.32C1528.37,528.59,1530.18,629.43,1530.44,638.5Z" transform="translate(-698.66 -141)"/><line class="cls-9" x1="911.53" y1="382.23" x2="837.44" y2="487.68"/><polyline class="cls-9" points="915.22 412.36 885.6 419.14 871.87 392.37"/><polyline class="cls-9" points="900.47 433.26 870.84 440.05 857.12 413.28"/><polyline class="cls-9" points="884.79 456.01 855.16 462.8 841.44 436.03"/></g><rect class="cls-12" x="51.34" y="212.49" width="254" height="225.51" rx="13.42"/><rect class="cls-1" x="68.34" y="231" width="172" height="13"/><rect class="cls-1" x="68.34" y="251" width="172" height="13"/><rect class="cls-1" x="68.34" y="271" width="207" height="13"/><rect class="cls-13" x="68.34" y="293" width="44" height="18" rx="6.39"/><rect class="cls-1" x="68.34" y="340" width="172" height="13"/><rect class="cls-1" x="68.34" y="360" width="172" height="13"/><rect class="cls-1" x="68.34" y="380" width="207" height="13"/><rect class="cls-13" x="68.34" y="402" width="44" height="18" rx="6.39"/><path class="cls-14" d="M1084,860l-54.89-7.32h0q-6.15-1.56-11.64-3.05c-9.39-2.55-17.25-4.88-23.41-6.77-65.93-20.3-139.46-43-195.84-95.66-.87-.82-1.75-1.64-2.61-2.48l0,0c-1.39-1.33-2.76-2.67-4.12-4a257.66,257.66,0,0,1-36.3-45.86,274.21,274.21,0,0,1-17.33-32.6,299.13,299.13,0,0,1-11-28.38c-.31-.93-.61-1.86-.91-2.8l276.51.15,72,43.26Z" transform="translate(-698.66 -141)"/><ellipse class="cls-15" cx="230.84" cy="604" rx="30.5" ry="8"/><path class="cls-15" d="M892,683l.06.57,1.7,15.23c-5.88-2.35-9.5-2-11.76-1.12-10.25,4.12-12.86,28.42,2,37,4.57,2.64,9.83,3.24,14.09,3.16L899,746h61l8.89-62.23L969,683Zm-8,45.93c-8.22-5.95-7.57-15.31-5-20.56,1-2,2.72-5.55,7-6.58a12.39,12.39,0,0,1,8.22,1.23l3.34,30A23.44,23.44,0,0,1,884,728.93Z" transform="translate(-698.66 -141)"/><ellipse class="cls-16" cx="231.84" cy="542" rx="38.5" ry="10"/></g><g id="Layer_8" data-name="Layer 8"><path class="cls-17" d="M1075.27,863V629.7l-47.79,12.58-2.57,53.09-7.42,154.28c12.33,3.34,27.29,7.06,44.4,10.67Z" transform="translate(-698.66 -141)"/></g><g id="Layer_4" data-name="Layer 4"><path class="cls-17" d="M1127,461s37.6-3.6,49-15-.29-26.45-.29-26.45,22.8,28.49,59.85,0c0,0-11.93,24.9,9.44,33.45s96,25,96,25-10,59.8-51.3,66.93-114,0-114,0l-61.26-51.29Z" transform="translate(-698.66 -141)"/><ellipse class="cls-17" cx="1200.65" cy="357.17" rx="73.38" ry="87.62" transform="translate(-725.4 -34.14) rotate(-5.04)"/><path class="cls-17" d="M1127.15,355.15s-14.13-5.82-15.55,2.73-1.43,19.95,7.12,24.22,13.6,4.82,13.6,4.82l.65-29Z" transform="translate(-698.66 -141)"/><path class="cls-17" d="M1266.9,337.39s11.4-11.4,15.67-5.7c-5.38-7.18,16.78,19.85,0,29.92-7.12,4.27-12.82,7.12-12.82,7.12Z" transform="translate(-698.66 -141)"/></g><g id="Layer_2" data-name="Layer 2"><path class="cls-13" d="M1075.27,863c76,14.73,187.72,25.4,302.13-3.42a2.65,2.65,0,0,0,2-2.78l-4.83-58-.09-1L1224.4,786.5a2.61,2.61,0,0,0-1.61.41c-2.23,1.41-11.11,5.65-39.87,8h-.1l-.69.06a38.75,38.75,0,0,1-17.16-2.34l-.16-.06c-11-4.24-18.33-13.13-23-21l0,0a71,71,0,0,1-6.41-14.16,2.6,2.6,0,0,0-1-1.39L1118,745.11l1.4-.24,55.59-9.73v-.59l.71-69.23.69-67.43a2.63,2.63,0,0,1,2.4-2.59l239.84-21.16-.09-.23a618.55,618.55,0,0,1-17-65.31c-6.68-33.44-53.54-34.23-59.27-34.21-.37,0-60.27-10.39-60.27-10.39s15.62,6.53-20,45-50,33.79-85.57,18.12c-30.36-13.36-42.09-53.63-44.89-65.23a2.63,2.63,0,0,0-3.68-1.75h0l-21.13,9.94-.2.08-49.63,18.44-.26.11c-.51.26-2.62,1.3-5.54,2.71l-.21.09c-3.45,1.28-11.15,10.31-13.9,11.22-8.55,2.85-37.06,178.81-32.78,188.78,1.15,2.71,15.18,3.45,20.72,3.86,11.53.87,28.73-2,35.74-3.31a2.63,2.63,0,0,1,3.11,2.62l-1.85,163.46a2.64,2.64,0,0,0,2.11,2.61Z" transform="translate(-698.66 -141)"/></g><g id="Layer_5" data-name="Layer 5"><path class="cls-18" d="M1272.6,280.52c-7.12-42.74-62.69-48.44-62.69-48.44l11.4-12.83-34.2,15.68,5.7-15.68S1165.74,252,1133,267.7s-18.52,55.56-18.52,55.56L1133,387.38l8.29-52.49,34.45,6.9L1158.62,329h55.56l-15.67-10s42.74-4.28,52.72,5.7c6.68,6.68,14.68,19.43,19.23,27.12l6.41,19.9S1279.72,323.26,1272.6,280.52Zm-3.15,68.16" transform="translate(-698.66 -141)"/></g><g id="Layer_3" data-name="Layer 3"><polygon class="cls-19" points="477.05 593.42 420.06 603.39 475.63 641.86 477.05 593.42"/><polygon class="cls-20" points="477.05 453.79 742.06 431 739.21 620.49 477.05 641.86 477.05 453.79"/><path class="cls-17" d="M1429.22,762.2s7.23,34.91-9.87,36.34-52.71,0-52.71,0l-142.48-11.4s-64.12,24.22-81.22-12.82l-7.68-18.47,40.45,27Z" transform="translate(-698.66 -141)"/><circle class="cls-12" cx="617.52" cy="542.6" r="15.83"/></g></svg>