<svg id="Layer_4" data-name="Layer 4" xmlns="http://www.w3.org/2000/svg" xmlns:xlink="http://www.w3.org/1999/xlink" viewBox="0 0 60.17 60.17"><defs><style>.cls-1{fill:none;}.cls-2{fill:url(#linear-gradient);}.cls-3{fill:url(#linear-gradient-2);}.cls-4{fill:url(#linear-gradient-3);}.cls-5{fill:url(#linear-gradient-4);}.cls-6{fill:url(#linear-gradient-5);}.cls-7{fill:url(#linear-gradient-6);}.cls-8{fill:url(#linear-gradient-7);}</style><linearGradient id="linear-gradient" x1="325.99" y1="642.08" x2="325.63" y2="683.02" gradientUnits="userSpaceOnUse"><stop offset="0" stop-color="#1b75bc"/><stop offset="0.22" stop-color="#1e73ba"/><stop offset="0.39" stop-color="#286db3"/><stop offset="0.55" stop-color="#3862a8"/><stop offset="0.69" stop-color="#505298"/><stop offset="0.83" stop-color="#6e3f84"/><stop offset="0.96" stop-color="#92276b"/><stop offset="1" stop-color="#9e1f63"/></linearGradient><linearGradient id="linear-gradient-2" x1="350.23" y1="636.69" x2="330.68" y2="685.32" xlink:href="#linear-gradient"/><linearGradient id="linear-gradient-3" x1="305.43" y1="613.92" x2="355.49" y2="663.98" xlink:href="#linear-gradient"/><linearGradient id="linear-gradient-4" x1="-21.06" y1="14.02" x2="136.63" y2="95.55" gradientUnits="userSpaceOnUse"><stop offset="0" stop-color="#1b75bc"/><stop offset="1" stop-color="#9e1f63"/></linearGradient><linearGradient id="linear-gradient-5" x1="-63.52" y1="2.53" x2="94.16" y2="84.05" xlink:href="#linear-gradient-4"/><linearGradient id="linear-gradient-6" x1="-37.53" y1="-26.17" x2="120.16" y2="55.36" xlink:href="#linear-gradient-4"/><linearGradient id="linear-gradient-7" x1="-20.86" y1="-7.33" x2="136.83" y2="74.2" xlink:href="#linear-gradient-4"/></defs><title>logo</title><rect class="cls-1" width="60.17" height="60.17"/><path class="cls-2" d="M321.81,673.88a4,4,0,0,1,2.34-3.74l.27-.52a8.67,8.67,0,0,0,1-4v-.31a7.51,7.51,0,0,0-1.24-4.11h0a4,4,0,0,1-2.35-3.73,4,4,0,0,1,3.91-3.87,4,4,0,0,1,1.72,7.6h0a7.81,7.81,0,0,0-1.12,3.93h0a11,11,0,0,0,1.05,4.83l.07.15h0a4,4,0,0,1-1.69,7.6A4,4,0,0,1,321.81,673.88Z" transform="translate(-305.49 -622.9)"/><path class="cls-3" d="M352.93,658.6a4,4,0,0,0-5.09-2.06,3.66,3.66,0,0,0-1.11.67,11.13,11.13,0,0,1-4.48-1.86,7.81,7.81,0,0,1-2.6-3.15h0a4,4,0,0,0-7.23-2.9,4,4,0,0,0,1,5.41,4,4,0,0,0,4.41.2h0a7.48,7.48,0,0,1,4.09,1.32l.26.17a8.49,8.49,0,0,1,2.7,3l.28.52a4.07,4.07,0,0,0-.06.6,7.52,7.52,0,0,1-3,2.39l-.29.12a8.49,8.49,0,0,1-4,.68l-.59,0a4,4,0,0,0-4.36-.66,4,4,0,0,0-2,5.12,4,4,0,0,0,7.65-1.45h0l.11-.13a11.12,11.12,0,0,1,4-2.87,7.86,7.86,0,0,1,3.35-.59,4.21,4.21,0,0,0,.95.88,4,4,0,0,0,5.4-1,4.11,4.11,0,0,0,.24-.39A4,4,0,0,0,352.93,658.6Z" transform="translate(-305.49 -622.9)"/><path class="cls-4" d="M347.81,642.58a4,4,0,0,0-4.07-1.44h0l-.15-.07a11,11,0,0,1-3.77-3.18,7.89,7.89,0,0,1-1.48-3.6,4,4,0,0,0-1.07-5.31,4,4,0,0,0-2.34-.73,3.93,3.93,0,0,0-2.61.86,4,4,0,0,0-.81,5.34,10.89,10.89,0,0,1-1.88,4.54h0a7.81,7.81,0,0,1-3.15,2.6h0a4,4,0,0,0-2.92,7.22,4,4,0,0,0,5.41-.95,4,4,0,0,0,.21-4.41h0a7.45,7.45,0,0,1,1.32-4.09l.18-.26a8.49,8.49,0,0,1,3-2.7l.5-.27a4.53,4.53,0,0,0,.53,0,4.19,4.19,0,0,0,1-.09,7.45,7.45,0,0,1,3.45,2.5l.19.24a8.56,8.56,0,0,1,1.65,3.72l.11.58a4,4,0,0,0,.43,4.4,4,4,0,0,0,5.45.66A4,4,0,0,0,347.81,642.58Z" transform="translate(-305.49 -622.9)"/><circle class="cls-5" cx="38.37" cy="44.75" r="1.97"/><circle class="cls-6" cx="14.34" cy="42.78" r="1.97"/><circle class="cls-7" cx="40.34" cy="14.09" r="1.97"/><circle class="cls-8" cx="29.72" cy="18.82" r="1.97"/></svg>